<svg width="167" height="168" viewBox="0 0 167 168" fill="none" xmlns="http://www.w3.org/2000/svg">
<path d="M78.0971 4H89.6748C93.2767 4 95.335 5.79057 95.8495 9.3717L97.7791 25.1031C103.697 26.8937 109.228 29.4516 114.374 32.777L127.109 23.1847C129.939 20.8825 132.641 21.0104 135.214 23.5683L143.318 31.6259C145.891 34.1839 146.019 36.8697 143.704 39.6835L134.056 52.3453C137.4 57.9728 139.973 63.984 141.774 70.3789L157.597 72.2974C161.199 72.809 163 74.8553 163 78.4364V89.9472C163 93.5284 161.199 95.5747 157.597 96.0863L141.774 98.0048C139.973 104.144 137.4 110.027 134.056 115.655L143.704 128.317C146.019 131.13 145.891 133.816 143.318 136.374L135.214 144.432C132.641 146.99 129.939 147.118 127.109 144.815L114.374 135.223C108.971 138.548 103.439 141.106 97.7791 142.897L95.8495 158.628C95.335 162.209 93.2767 164 89.6748 164H78.0971C74.4951 164 72.4369 162.209 71.9223 158.628L69.9927 142.897C63.818 141.106 58.0291 138.548 52.6262 135.223L39.8908 144.815C37.0607 147.118 34.3592 146.99 31.7864 144.432L23.682 136.374C21.1092 133.816 20.9806 131.13 23.2961 128.317L32.9442 115.655C29.5995 110.027 27.0267 104.144 25.2257 98.0048L9.40291 96.0863C5.80097 95.5747 4 93.5284 4 89.9472V78.4364C4 74.8553 5.80097 72.809 9.40291 72.2974L25.2257 70.3789C27.0267 63.984 29.5995 57.9728 32.9442 52.3453L23.2961 39.6835C20.9806 36.8697 21.1092 34.1839 23.682 31.6259L31.7864 23.5683C34.3592 21.0104 37.0607 20.8825 39.8908 23.1847L52.6262 32.777C58.0291 29.4516 63.818 26.8937 69.9927 25.1031L71.9223 9.3717C72.4369 5.79057 74.4951 4 78.0971 4Z" stroke="#61B4D2" stroke-width="8" stroke-linejoin="round"/>
<path d="M83.5001 128.317C108.224 128.317 128.267 108.39 128.267 83.8082C128.267 59.2269 108.224 39.2998 83.5001 39.2998C58.776 39.2998 38.7332 59.2269 38.7332 83.8082C38.7332 108.39 58.776 128.317 83.5001 128.317Z" stroke="#61B4D2" stroke-width="6"/>
<path d="M83.5 66.1851L96.9354 75.3705V93.7412L83.5 102.927L70.0647 93.7412V75.3705L83.5 66.1851Z" stroke="#61B4D2" stroke-width="4" stroke-linecap="round" stroke-linejoin="round"/>
<path d="M83.5 66.1857V53.9385" stroke="#61B4D2" stroke-width="4" stroke-linecap="round" stroke-linejoin="round"/>
<path d="M70.0647 93.7412L59.2131 101.09" stroke="#61B4D2" stroke-width="4" stroke-linecap="round" stroke-linejoin="round"/>
<path d="M96.9353 93.7412L107.787 101.09" stroke="#61B4D2" stroke-width="4" stroke-linecap="round" stroke-linejoin="round"/>
<path d="M83.5 55.1629C85.4977 55.1629 87.1172 53.2437 87.1172 50.8764C87.1172 48.509 85.4977 46.5898 83.5 46.5898C81.5023 46.5898 79.8828 48.509 79.8828 50.8764C79.8828 53.2437 81.5023 55.1629 83.5 55.1629Z" stroke="#61B4D2" stroke-width="4" stroke-linecap="round" stroke-linejoin="round"/>
<path d="M56.6292 107.213C58.6269 107.213 60.2464 105.294 60.2464 102.927C60.2464 100.559 58.6269 98.6401 56.6292 98.6401C54.6314 98.6401 53.012 100.559 53.012 102.927C53.012 105.294 54.6314 107.213 56.6292 107.213Z" stroke="#61B4D2" stroke-width="4" stroke-linecap="round" stroke-linejoin="round"/>
<path d="M110.371 107.213C112.368 107.213 113.988 105.294 113.988 102.927C113.988 100.559 112.368 98.6401 110.371 98.6401C108.373 98.6401 106.753 100.559 106.753 102.927C106.753 105.294 108.373 107.213 110.371 107.213Z" stroke="#61B4D2" stroke-width="4" stroke-linecap="round" stroke-linejoin="round"/>
</svg>
